<svg width="16" height="16" viewBox="0 0 16 16" fill="none" xmlns="http://www.w3.org/2000/svg" id="main">
    <path d="M12.7171 8.68597L8.69006 12.717C8.68406 12.723 8.67507 12.725 8.66907 12.731C8.58419 12.811 8.48606 12.8756 8.37906 12.922V12.922C8.21446 12.9891 8.03461 13.0099 7.85905 12.982C7.82331 12.9778 7.7879 12.971 7.75307 12.962C7.57559 12.9262 7.41171 12.8413 7.28006 12.717L3.28706 8.68597C3.19442 8.59445 3.12086 8.48546 3.07066 8.3653C3.02046 8.24513 2.99463 8.11625 2.99463 7.98602C2.99463 7.8558 3.02046 7.72685 3.07066 7.60669C3.12086 7.48653 3.19442 7.37753 3.28706 7.28601C3.47443 7.09976 3.72788 6.99518 3.99207 6.99518C4.25625 6.99518 4.5097 7.09976 4.69707 7.28601L6.99706 9.61102V2C6.99706 1.73478 7.10241 1.48044 7.28995 1.29291C7.47748 1.10537 7.73184 1 7.99706 1C8.26227 1 8.51663 1.10537 8.70416 1.29291C8.8917 1.48044 8.99706 1.73478 8.99706 2V9.59998L11.3051 7.28998C11.4924 7.10403 11.7456 6.99969 12.0096 6.99969C12.2735 6.99969 12.5267 7.10403 12.7141 7.28998C12.806 7.38137 12.8791 7.49001 12.9291 7.60968C12.979 7.72935 13.0049 7.85769 13.0052 7.98737C13.0054 8.11704 12.9801 8.24548 12.9307 8.36536C12.8813 8.48524 12.8087 8.59419 12.7171 8.68597V8.68597ZM4.00006 14H12.0001C12.2653 14 12.5196 14.1054 12.7072 14.2929C12.8947 14.4804 13.0001 14.7348 13.0001 15C13.0001 15.2652 12.8947 15.5196 12.7072 15.7071C12.5196 15.8946 12.2653 16 12.0001 16H4.00006C3.73484 16 3.48049 15.8946 3.29295 15.7071C3.10542 15.5196 3.00006 15.2652 3.00006 15C3.00006 14.7348 3.10542 14.4804 3.29295 14.2929C3.48049 14.1054 3.73484 14 4.00006 14Z" fill="currentColor"/>
</svg>
